<?xml version="1.0" encoding="UTF-8" standalone="no"?>
<svg
   xmlns:dc="http://purl.org/dc/elements/1.1/"
   xmlns:cc="http://creativecommons.org/ns#"
   xmlns:rdf="http://www.w3.org/1999/02/22-rdf-syntax-ns#"
   xmlns:svg="http://www.w3.org/2000/svg"
   xmlns="http://www.w3.org/2000/svg"
   xmlns:sodipodi="http://sodipodi.sourceforge.net/DTD/sodipodi-0.dtd"
   xmlns:inkscape="http://www.inkscape.org/namespaces/inkscape"
   width="153.89023mm"
   height="163.35159mm"
   viewBox="0 0 153.89023 163.35159"
   version="1.1"
   id="svg487"
   inkscape:version="1.0.1 (3bc2e813f5, 2020-09-07)"
   sodipodi:docname="Nosferatu Orlok silhouette.svg">
  <defs
     id="defs481" />
  <sodipodi:namedview
     id="base"
     pagecolor="#ffffff"
     bordercolor="#666666"
     borderopacity="1.0"
     inkscape:pageopacity="0.0"
     inkscape:pageshadow="2"
     inkscape:zoom="0.35"
     inkscape:cx="312.3506"
     inkscape:cy="129.38142"
     inkscape:document-units="mm"
     inkscape:current-layer="layer1"
     inkscape:document-rotation="0"
     showgrid="false"
     inkscape:pagecheckerboard="true"
     inkscape:window-width="1366"
     inkscape:window-height="705"
     inkscape:window-x="-8"
     inkscape:window-y="-8"
     inkscape:window-maximized="1" />
  <metadata
     id="metadata484">
    <rdf:RDF>
      <cc:Work
         rdf:about="">
        <dc:format>image/svg+xml</dc:format>
        <dc:type
           rdf:resource="http://purl.org/dc/dcmitype/StillImage" />
        <dc:title></dc:title>
      </cc:Work>
    </rdf:RDF>
  </metadata>
  <g
     inkscape:label="Layer 1"
     inkscape:groupmode="layer"
     id="layer1"
     transform="translate(-52.067781,-53.092974)">
    <path
       id="path583"
       style="fill:#000000;stroke:#000000;stroke-width:1.83123px;stroke-linecap:butt;stroke-linejoin:miter;stroke-opacity:1"
       d="m 575.32617,201.58203 c -7.99767,-0.0108 -14.31595,1.60372 -17.87109,3.77149 -9.4803,5.7807 -14.79805,24.04826 -19.19141,22.42968 -4.39328,-1.61859 -7.40039,-5.55078 -7.40039,-5.55078 0,0 -12.02323,19.19293 -13.87305,22.89258 -1.84981,3.69964 -46.01512,1.15494 -48.55859,-0.23242 -2.54355,-1.38736 -27.05253,-12.48514 -28.90234,-12.25391 -1.84982,0.23123 -11.56129,9.48047 -15.49219,9.48047 -3.93086,0 -36.99663,-2.54425 -42.77734,8.55469 -3.91825,7.52302 -4.44029,17.16237 -5.73633,24.39844 -13.68962,16.2009 -48.43107,56.77112 -59.47071,64.13085 -13.73419,9.15616 -12.7539,16.02344 -12.7539,16.02344 0,0 -18.63867,21.25366 -18.63867,25.17774 0,3.92405 -31.39179,26.81454 -31.71875,33.68164 -0.32667,6.8671 -3.27101,16.02487 -11.11914,19.29492 -7.84814,3.27005 -9.48272,12.75186 -7.84766,30.41016 1.63499,17.65829 19.29269,183.12421 23.2168,190.31836 3.92403,7.1941 7.84765,7.19335 7.84765,7.19335 0,0 -16.04275,21.30432 -17.89258,33.32813 -1.84982,12.02385 4.62475,10.6361 -1.8496,16.18555 -6.47436,5.54948 -17.5725,28.21078 -32.3711,34.22265 -14.79853,6.01198 -15.72461,5.54883 -15.72461,5.54883 0,0 18.03692,3.23823 32.37305,-0.92383 14.33612,-4.16213 24.04707,-26.82247 26.35937,-24.97265 2.3123,1.84981 -6.47396,27.28437 -12.02343,34.68359 -5.54948,7.39929 -24.50977,18.96094 -24.50977,18.96094 0,0 9.66977,7.39163 23.89453,-3.72656 14.22469,-11.1182 29.26564,-37.60566 31.55469,-33.68165 2.28904,3.92414 -20.76352,48.07044 -31.55469,54.9375 l -10.79101,6.86719 c 0,0 8.01079,6.37596 28.28515,-11.60937 18.47508,-16.38922 29.88998,-50.142 40.1836,-56.9961 -10.1537,36.7393 -27.29131,70.41133 -26.75782,83.01563 h 291.7793 c -12.99408,-25.31821 -24.84167,-48.38857 -26.26953,-53.81446 -3.27005,-12.42613 -18.96737,-31.39305 -20.27539,-45.78124 -1.30802,-14.38825 -21.58211,-13.73362 -30.73828,-25.50586 -9.15617,-11.77217 4.57814,-37.27884 9.15625,-45.12696 4.57799,-7.84807 22.23761,-15.69633 16.35156,-35.9707 -2.81507,-9.69633 -1.87969,-16.22336 -0.14844,-20.42383 9.88649,-5.38795 20.74501,-11.93684 25.6543,-12.27539 9.48314,-0.65401 79.13533,-45.78182 82.73242,-47.08984 3.59705,-1.30802 13.73469,-5.55894 16.67774,-10.79102 2.943,-5.23207 14.3871,-4.25195 19.61914,-4.25195 5.23207,0 16.67719,-8.50086 17.6582,-10.46289 0.98101,-1.96199 10.79117,-4.90623 29.10351,-0.32813 18.31227,4.57807 38.91407,23.54492 38.91407,23.54492 0,0 -3.9e-4,-7.19376 -5.23242,-17.0039 -5.23208,-9.81018 -28.77683,-27.46762 -32.04688,-29.42969 -3.27005,-1.96203 -4.57735,-6.86882 15.04297,-3.92578 19.62036,2.94308 49.37695,14.38867 49.37695,14.38867 0,0 -3.26963,-10.7911 -17.0039,-17.6582 -13.73416,-6.8671 -43.49138,-12.7534 -48.39649,-13.73438 -4.90511,-0.98101 -1.3083,-5.88552 21.58203,-5.55859 22.89045,0.32697 50.03321,9.81055 50.03321,9.81055 0,0 -37.60582,-36.62409 -89.59961,-27.79493 -51.99387,8.82913 -75.86524,30.41016 -75.86524,30.41016 0,0 -1.96183,0.65398 -6.21289,-2.28906 -2.80373,-1.94104 -28.4476,11.6631 -45.72265,21.2207 6.61052,-17.36927 10.80992,-30.89209 9.09375,-33.60937 -5.54945,-8.78665 -11.56206,-3.23722 -6.9375,-12.48633 4.62459,-9.24911 42.08512,-64.28127 41.16015,-72.60547 -0.92485,-8.32419 9.24848,-12.02366 9.71094,-14.33594 0.46235,-2.31228 1.38741,-12.94856 4.16211,-10.17383 2.77478,2.77473 5.31828,13.41125 8.32422,12.48633 3.00601,-0.92492 5.54869,0.23182 8.55468,-22.19726 3.00594,-22.42909 0.92516,-26.12827 2.3125,-27.51563 1.38743,-1.38736 15.95458,-7.16906 15.49219,-10.40625 -0.46235,-3.23718 -4.625,-4.625 -4.625,-4.625 0,0 4.85631,-49.2506 -23.35351,-71.67969 -17.63112,-14.01818 -35.62367,-18.55224 -48.95313,-18.57031 z m -217.78125,222.4375 c 1.03868,13.76145 3.45174,45.76188 3.82813,51.4082 0.28449,4.26852 -19.40222,65.48543 -34.90625,123.83985 0.28224,-13.17669 -0.30441,-23.68078 -2.08985,-29.03711 -8.32418,-24.97262 -4.62458,-60.58168 -4.16211,-85.0918 0.46234,-24.51016 8.32422,-16.64847 8.32422,-24.97265 0,-8.32422 0.4637,-11.09851 9.71289,-20.34766 4.12259,-4.12258 11.91544,-9.71904 19.29297,-15.79883 z"
       transform="scale(0.26458333)" />
  </g>
</svg>
